<?xml version="1.0" encoding="UTF-8"?>
<!DOCTYPE svg PUBLIC "-//W3C//DTD SVG 1.1//EN" "http://www.w3.org/Graphics/SVG/1.1/DTD/svg11.dtd">
<svg version="1.1" xmlns="http://www.w3.org/2000/svg" xmlns:xlink="http://www.w3.org/1999/xlink" x="0" y="0" width="500" height="500" viewBox="0, 0, 500, 500">
  <g id="Layer_1">
    <path d="M324.319,285.31 C329.115,283.996 332.932,284.565 333.927,286.439 C334.67,287.838 334.648,291.233 332.141,296.19 C329.417,301.573 324.769,306.987 319.053,311.434 C317.034,313.002 315.133,314.267 313.379,315.285 C318.103,306.023 321.77,295.984 324.319,285.31 z M298.349,327.589 L306.45,325.505 C311.834,324.119 317.607,321.111 323.146,316.805 C329.634,311.759 334.95,305.533 338.116,299.275 C341.338,292.905 341.951,287.208 339.841,283.234 C337.009,277.902 329.636,276.263 320.411,279.434 L318.636,280.045 L318.221,281.892 C315.046,296.014 309.85,308.978 302.776,320.426 L298.349,327.589" fill="#744918"/>
    <path d="M155.812,254.742 C156.281,254.237 157.06,253.636 158.095,253.636 L317.709,253.636 C318.749,253.636 319.528,254.239 320,254.747 C320.999,255.82 321.534,257.454 321.432,259.117 C321.228,262.395 320.91,265.734 320.483,269.04 L319.87,273.784 L324.504,272.795 C333.422,270.892 340.323,273.168 343.439,279.041 C349.215,289.922 340.71,309.042 324.481,321.663 C316.679,327.73 308.305,331.37 300.901,331.915 C299.427,332.024 298.058,332.01 296.604,331.847 L294.836,331.645 L293.681,333.013 C278.299,351.204 258.491,361.222 237.903,361.222 C194.495,361.222 157.802,316.383 154.367,259.143 C154.266,257.466 154.806,255.82 155.812,254.742 z M176.028,336.233 C192.84,356.719 214.815,368 237.903,368 C259.979,368 281.136,357.621 297.653,338.729 C298.898,338.792 300.116,338.77 301.392,338.676 C310.088,338.036 319.741,333.902 328.576,327.035 C347.926,311.986 356.858,289.976 349.353,275.838 L349.353,275.839 C345.388,268.366 337.454,264.656 327.646,265.483 C327.846,263.494 328.008,261.506 328.129,259.538 C328.349,255.991 327.168,252.553 324.891,250.104 C322.942,248.01 320.393,246.856 317.709,246.856 L158.095,246.856 C155.418,246.856 152.871,248.007 150.925,250.096 C148.643,252.546 147.455,255.994 147.668,259.554 C149.428,288.861 159.499,316.092 176.028,336.233" fill="#744918"/>
    <path d="M270.511,326.197 C270.944,326.197 271.359,326.018 271.655,325.717 C271.995,325.423 272.205,324.963 272.205,324.515 C272.205,324.099 272.047,323.7 271.701,323.292 C271.375,322.985 270.917,322.822 270.439,322.835 C269.997,322.851 269.592,323.026 269.338,323.304 C268.994,323.655 268.813,324.074 268.813,324.515 C268.813,325.017 269.068,325.454 269.307,325.695 C269.622,326.014 270.061,326.197 270.511,326.197" fill="#744918"/>
    <path d="M253.961,333.886 C254.402,333.886 254.818,333.709 255.129,333.391 C255.459,333.058 255.654,332.605 255.654,332.178 C255.654,331.71 255.46,331.283 255.129,330.994 C254.476,330.335 253.412,330.335 252.763,330.992 C252.443,331.31 252.267,331.73 252.267,332.178 C252.267,332.599 252.456,333.051 252.74,333.335 C253.039,333.684 253.484,333.886 253.961,333.886" fill="#744918"/>
    <path d="M270.545,330.5 C270.086,330.475 269.654,330.66 269.376,330.944 C269.03,331.247 268.832,331.697 268.832,332.178 C268.832,332.65 269.023,333.1 269.32,333.358 C269.65,333.691 270.087,333.889 270.489,333.889 C270.893,333.889 271.322,333.716 271.694,333.391 C272.007,333.074 272.187,332.632 272.187,332.178 C272.187,331.703 271.993,331.252 271.705,331.009 C271.41,330.689 270.999,330.508 270.545,330.5" fill="#744918"/>
    <path d="M287.899,309.115 C288.34,309.115 288.755,308.937 289.046,308.638 C289.373,308.352 289.561,307.914 289.561,307.437 C289.561,306.98 289.381,306.537 289.067,306.222 C288.758,305.907 288.305,305.729 287.838,305.742 C287.386,305.749 286.967,305.929 286.699,306.221 C286.386,306.537 286.206,306.98 286.206,307.437 C286.206,307.868 286.391,308.31 286.696,308.615 C287.008,308.933 287.445,309.115 287.899,309.115" fill="#744918"/>
    <path d="M286.642,323.681 C287.083,323.681 287.499,323.504 287.828,323.166 C288.143,322.805 288.303,322.403 288.303,321.973 C288.303,321.496 288.108,321.044 287.819,320.8 C287.525,320.482 287.113,320.302 286.66,320.294 C286.187,320.292 285.771,320.455 285.475,320.755 C285.145,321.085 284.947,321.54 284.947,321.973 C284.947,322.413 285.123,322.832 285.42,323.13 C285.72,323.48 286.165,323.681 286.642,323.681" fill="#744918"/>
    <path d="M280.848,338.549 C281.285,338.549 281.701,338.37 281.97,338.088 C282.328,337.819 282.541,337.362 282.541,336.868 C282.541,336.414 282.362,335.971 282.04,335.645 C281.716,335.339 281.245,335.172 280.782,335.188 C280.339,335.203 279.933,335.378 279.68,335.654 C279.366,335.971 279.187,336.414 279.187,336.868 C279.187,337.31 279.361,337.762 279.644,338.048 C279.959,338.366 280.397,338.549 280.848,338.549" fill="#744918"/>
    <path d="M297.513,282.838 C297.95,282.838 298.366,282.659 298.635,282.377 C298.993,282.107 299.206,281.651 299.206,281.156 C299.206,280.702 299.027,280.26 298.705,279.934 C298.381,279.626 297.915,279.46 297.447,279.476 C297.004,279.492 296.598,279.666 296.345,279.943 C296.031,280.26 295.853,280.702 295.853,281.156 C295.853,281.599 296.026,282.05 296.309,282.337 C296.624,282.655 297.062,282.838 297.513,282.838" fill="#744918"/>
    <path d="M307.031,291.271 C307.469,291.271 307.884,291.096 308.2,290.776 C308.513,290.46 308.692,290.018 308.692,289.563 C308.692,289.116 308.517,288.695 308.209,288.391 C307.914,288.072 307.479,287.889 307.018,287.889 C307.018,287.889 307.016,287.889 307.015,287.889 C306.547,287.889 306.11,288.073 305.829,288.378 C305.512,288.694 305.337,289.115 305.337,289.563 C305.337,290.036 305.528,290.485 305.789,290.7 C306.062,291.062 306.514,291.271 307.031,291.271" fill="#744918"/>
    <path d="M303.512,305.137 C303.932,305.137 304.347,304.948 304.68,304.606 C304.997,304.286 305.173,303.867 305.173,303.426 C305.173,302.951 304.978,302.5 304.69,302.258 C304.403,301.944 303.992,301.768 303.534,301.761 C303.073,301.731 302.628,301.922 302.346,302.211 C302.016,302.541 301.817,302.994 301.817,303.426 C301.817,303.897 302.011,304.347 302.31,304.604 C302.634,304.938 303.084,305.137 303.512,305.137" fill="#744918"/>
    <path d="M247.885,164.639 C246.469,166.415 245.017,168.018 243.222,169.615 C241.414,171.291 239.452,172.997 237.393,174.777 C233.361,178.39 228.866,182.499 225.492,188.177 C222.069,193.807 220.574,201.02 221.512,207.342 C222.327,213.747 224.997,219.407 228.47,224.09 C232.021,228.738 236.309,232.623 241.263,235.195 C235.363,225.894 231.519,215.806 232.053,206.816 C232.34,202.343 233.707,198.547 236.191,195.142 C238.663,191.695 242.237,188.465 246.238,184.967 C253.953,178.378 264.812,167.782 263.438,152.97 C263.009,149.378 261.518,145.805 259.255,143.168 C257.012,140.503 254.319,138.705 251.74,137.405 C246.495,134.829 241.596,133.568 236.853,130.641 C239.469,135.717 244.471,139.203 247.967,142.82 C251.689,146.416 253.359,149.979 252.939,153.567 C252.656,157.167 250.656,161.127 247.885,164.639" fill="#744918"/>
    <path d="M211.916,227.695 C207.498,221.693 204.286,215.126 203.478,208.456 C202.672,201.797 204.719,195.44 209.028,190.58 C213.485,185.548 219.562,180.652 223.846,174.072 C225.978,170.816 227.862,166.913 227.769,162.585 C227.577,158.189 224.831,154.683 221.728,152.735 C223.878,155.828 225.169,159.26 224.497,162.392 C223.899,165.524 221.89,168.291 219.69,170.888 C215.101,176.124 209.402,180.293 203.974,186.128 C201.346,189.274 199.231,193.034 198.216,197.133 C197.275,201.231 197.243,205.539 198.337,209.459 C200.388,217.354 205.604,223.76 211.916,227.695" fill="#744918"/>
    <path d="M254.381,195.425 C252.381,198.491 251.049,202.099 250.725,205.781 C250.44,209.455 250.9,213.122 252.159,216.405 C254.568,222.996 259.212,228.32 264.808,231.62 C261.128,226.27 258.329,220.662 257.191,214.943 C256.037,209.219 256.99,203.672 259.976,199.163 C262.974,194.642 268.048,190.66 272.41,185.656 C274.603,183.163 276.637,180.261 277.805,176.929 C278.943,173.59 278.957,169.922 277.765,166.869 C277.356,173.606 273.41,178.052 268.752,181.899 C264.148,185.861 258.566,189.3 254.381,195.425" fill="#744918"/>
  </g>
</svg>
