<?xml version="1.0" encoding="UTF-8"?>
<!DOCTYPE svg PUBLIC "-//W3C//DTD SVG 1.1//EN" "http://www.w3.org/Graphics/SVG/1.1/DTD/svg11.dtd">
<svg version="1.1" xmlns="http://www.w3.org/2000/svg" xmlns:xlink="http://www.w3.org/1999/xlink" x="0" y="0" width="500" height="500" viewBox="0, 0, 500, 500">
  <g id="Layer_1">
    <path d="M256.944,199.94 C244.543,189.216 243.75,179.373 253.813,167.126 C255.246,165.38 256.72,163.659 258.023,161.819 C267.29,148.721 264.125,135.473 250.043,128.254 C248.88,127.658 247.714,127.064 246.258,126.319 C246.395,127.062 246.375,127.509 246.555,127.85 C251.335,136.877 250.257,145.221 243.721,152.982 C242.658,154.244 241.702,155.614 240.837,157.021 C229.108,176.083 240.776,196.552 256.944,199.94" fill="#744918"/>
    <path d="M232.48,183.79 C225.342,176.11 225.138,169.316 231.509,161.128 C232.416,159.961 233.347,158.811 234.179,157.576 C240.096,148.784 238.564,139.588 230.322,134.281 C229.642,133.842 228.959,133.406 228.106,132.858 C228.168,133.372 228.145,133.679 228.242,133.918 C230.858,140.248 229.981,145.964 225.85,151.149 C225.178,151.992 224.566,152.913 224.01,153.859 C216.452,166.698 222.881,181.069 232.48,183.79" fill="#744918"/>
    <path d="M262.951,190.68 C260.886,187.188 259.993,183.61 262.032,179.885 C262.96,178.19 264.217,176.667 265.385,175.112 C267.862,171.813 268.408,168.345 266.804,164.884 C264.338,168.269 261.931,171.691 259.4,175.02 C254.551,181.405 255.604,186.559 262.951,190.68" fill="#744918"/>
    <path d="M96.111,246.28 C98.027,163.928 165.068,100.005 246.863,100.782 C328.545,101.559 396.937,170.843 393.546,256.51 C393.496,257.753 393.416,258.992 393.332,260.229 L386.989,260.229 C387.263,256.715 387.421,253.172 387.43,249.596 C387.619,171.516 323.665,107.408 245.621,107.161 C166.731,106.911 102.618,170.582 102.53,249.266 C102.525,252.957 102.681,256.609 102.954,260.229 L96.454,260.229 C96.127,255.627 96.002,250.977 96.111,246.28 z M312.26,258.928 C318.599,250.048 323.411,239.83 326.296,229.082 C332.331,227.68 337.084,228.447 338.818,231.147 C340.242,233.362 339.655,236.923 337.209,240.918 C334.508,245.331 329.938,249.74 324.341,253.336 C320.362,255.893 316.194,257.813 312.26,258.928 z M107.592,249.063 C107.821,173.675 169.47,112.24 244.921,112.21 C320.68,112.18 382.746,174.375 382.341,250.207 C382.323,253.576 382.167,256.917 381.903,260.229 L330.566,260.229 C346.003,249.779 353.462,234.751 347.544,225.54 C344.243,220.403 337.18,218.143 328.385,219.313 C328.739,217.105 329.016,214.909 329.21,212.757 C329.454,210.061 328.569,207.461 326.721,205.438 C324.846,203.386 322.177,202.209 319.398,202.209 L176.664,202.209 C173.886,202.209 171.217,203.386 169.342,205.438 C167.492,207.461 166.608,210.061 166.852,212.757 C168.482,230.806 174.891,247.092 184.608,260.229 L108.033,260.229 C107.743,256.543 107.58,252.823 107.592,249.063 z M410.481,260.229 C411.189,259.601 411.92,258.955 412.698,258.269 C421.192,250.778 421.047,247.12 411.97,239.993 C393.833,225.753 393.833,225.753 406.791,206.536 C412.799,197.625 411.293,191.773 401.168,188.746 C381.78,182.949 376.683,185.12 385.75,157.792 C385.932,157.243 386.248,156.737 386.402,156.184 C388.457,148.834 386.235,145.178 378.462,144.219 C373.602,143.619 368.629,143.994 363.717,143.736 C353.513,143.203 351.119,140.662 350.929,130.438 C350.886,128.123 350.92,125.806 350.908,123.488 C350.835,108.07 348.536,106.231 333.594,109.634 C313.207,114.276 313.207,114.277 305.698,94.597 C300.877,81.96 298.513,81.178 287.174,88.468 C268.806,100.278 268.806,100.278 254.839,83.223 C246.651,73.226 243.006,73.171 235.023,83.503 C220.796,101.919 221.489,101.187 203.123,88.61 C191.446,80.615 188.308,82.133 183.845,95.708 C178.719,111.305 176.754,118.25 158.623,110.041 C157.352,109.465 155.766,109.622 154.359,109.297 C142.214,106.5 139.359,108.252 139.422,120.384 C139.546,144.263 136.77,144.017 115.34,143.947 C103.915,143.91 101.284,147.817 104.392,158.52 C110.843,180.738 110.843,180.738 88.944,188.602 C78.821,192.236 76.866,197.492 83.016,206.173 C97.189,226.183 97.469,225.826 77.545,240.275 C68.953,246.506 68.948,251.413 77.022,258.074 C77.939,258.831 78.901,259.535 79.871,260.229 L38.356,260.229 L38.356,266.605 L461,266.605 L461,260.229 L410.481,260.229" fill="#744918"/>
    <path d="M244.209,397.773 C194.203,397.733 150.538,373.121 123.809,335.847 L131.937,335.847 C157.986,369.679 198.954,391.493 245.056,391.474 C290.703,391.911 331.718,369.897 357.871,335.847 L365.445,335.847 C337.977,373.521 293.286,398.569 244.209,397.773 z M351.352,335.847 C325.879,367.065 287.147,386.996 244.468,386.345 C201.743,386.281 163.561,366.58 138.445,335.847 L351.352,335.847 z M38.356,335.847 L105.454,335.847 C100.687,354.081 102.121,354.256 123.959,354.855 C136.119,355.189 138.677,357.658 139.256,369.628 C140.407,393.422 140.407,393.422 163.04,386.805 C173.352,383.79 177.131,385.504 181.088,395.403 C182.583,399.141 183.401,403.146 184.814,406.922 C187.807,414.928 192.067,416.626 199.545,412.416 C204.022,409.896 207.973,406.46 212.355,403.75 C217.843,400.356 223.048,399.691 227.423,405.901 C230.56,410.354 233.978,414.636 237.556,418.745 C242.486,424.408 247.03,424.416 251.989,418.781 C255.218,415.115 257.973,411.036 261.099,407.274 C267.121,400.026 271.105,399.506 278.755,404.678 C282.799,407.411 286.823,410.182 290.973,412.748 C297.455,416.754 301.789,414.743 304.271,407.763 C305.819,403.407 307.943,399.213 309.069,394.76 C311.044,386.948 315.997,384.462 323.293,386.15 C327.766,387.185 332.023,389.116 336.439,390.435 C345.561,393.16 350.378,389.779 350.829,380.297 C351.049,375.673 351.012,371.03 350.929,366.398 C350.803,359.319 354.6,355.796 361.238,355.038 C364.097,354.712 367.023,354.983 371.915,354.983 C386.318,356.035 390.64,351.47 384.165,335.847 L461,335.847 L461,329.472 L38.356,329.472 L38.356,335.847" fill="#744918"/>
    <g>
      <text transform="matrix(1, 0, 0, 1, 257, 301)">
        <tspan x="-192.672" y="24" font-family="Phosphate-Inline" font-size="72" fill="#4F5913">BeanoVino</tspan>
      </text>
      <path d="M66.848,276.976 L85.64,276.976 Q89.24,276.976 92.228,277.804 Q95.216,278.632 97.34,280.252 Q99.464,281.872 100.652,284.284 Q101.84,286.696 101.84,289.936 Q101.84,292.24 101.264,293.86 Q100.688,295.48 100.04,296.56 Q99.248,297.856 98.24,298.72 Q99.824,299.728 101.12,301.312 Q102.2,302.68 103.1,304.768 Q104,306.856 104,309.88 Q104,313.336 102.776,316.144 Q101.552,318.952 99.284,320.932 Q97.016,322.912 93.74,323.956 Q90.464,325 86.432,325 L66.848,325 z M83.408,313.696 Q88.88,313.696 88.88,309.52 Q88.88,305.344 83.408,305.344 L81.68,305.344 L81.68,313.696 z M87.008,291.592 Q87.008,288.28 83.408,288.28 L81.68,288.28 L81.68,294.904 L83.408,294.904 Q87.008,294.904 87.008,291.592 z M84.416,319.24 Q90.752,319.24 93.776,316.504 Q96.8,313.768 96.8,309.232 Q96.8,306.28 95.54,304.516 Q94.28,302.752 92.84,301.744 Q91.04,300.592 88.88,300.16 Q90.608,299.656 91.976,298.576 Q93.2,297.64 94.172,296.02 Q95.144,294.4 95.144,291.88 Q95.144,287.344 92.264,285.04 Q89.384,282.736 84.416,282.736 L74.048,282.736 L74.048,319.24 z M75.92,317.512 L75.92,301.024 L84.344,301.024 Q86.576,301.024 88.484,301.492 Q90.392,301.96 91.832,302.932 Q93.272,303.904 94.1,305.488 Q94.928,307.072 94.928,309.232 Q94.928,313.624 92.012,315.568 Q89.096,317.512 84.344,317.512 z M75.92,299.296 L75.92,284.464 L84.416,284.464 Q89.096,284.464 91.148,286.516 Q93.2,288.568 93.2,291.88 Q93.2,295.192 91.148,297.244 Q89.096,299.296 84.416,299.296 z M107.24,276.976 L135.536,276.976 L135.536,289.576 L122.576,289.576 L122.576,294.904 L135.32,294.904 L135.32,306.856 L122.576,306.856 L122.576,312.4 L136.04,312.4 L136.04,325 L107.24,325 z M130.712,319.24 L130.712,317.512 L116.312,317.512 L116.312,301.744 L129.992,301.744 L129.992,300.016 L116.312,300.016 L116.312,284.464 L130.712,284.464 L130.712,282.736 L114.44,282.736 L114.44,319.24 z M154.616,276.976 L166.136,276.976 L184.352,325 L169.232,325 L167.648,320.68 L153.104,320.68 L151.52,325 L136.4,325 z M163.616,310.096 L160.376,301.672 L157.136,310.096 z M147.128,319.24 L148.496,315.64 L172.256,315.64 L173.624,319.24 L175.64,319.24 L161.744,282.736 L159.008,282.736 L145.112,319.24 z M160.376,284.464 L171.608,313.912 L149.144,313.912 z M185.432,276.976 L198.032,276.976 L211.28,295.48 L211.28,276.976 L226.328,276.976 L226.328,325 L213.656,325 L200.48,306.568 L200.48,325 L185.432,325 z M194,319.24 L194,285.976 L217.76,319.24 L219.632,319.24 L219.632,282.736 L217.76,282.736 L217.76,316 L194,282.736 L192.128,282.736 L192.128,319.24 z M230.288,301.024 Q230.288,295.84 232.268,291.232 Q234.248,286.624 237.668,283.204 Q241.088,279.784 245.696,277.804 Q250.304,275.824 255.488,275.824 Q260.672,275.824 265.28,277.804 Q269.888,279.784 273.308,283.204 Q276.728,286.624 278.708,291.232 Q280.688,295.84 280.688,301.024 Q280.688,306.208 278.708,310.816 Q276.728,315.424 273.308,318.844 Q269.888,322.264 265.28,324.244 Q260.672,326.224 255.488,326.224 Q250.304,326.224 245.696,324.244 Q241.088,322.264 237.668,318.844 Q234.248,315.424 232.268,310.816 Q230.288,306.208 230.288,301.024 z M237.056,301.024 Q237.056,304.84 238.496,308.188 Q239.936,311.536 242.456,314.056 Q244.976,316.576 248.324,318.016 Q251.672,319.456 255.488,319.456 Q259.304,319.456 262.652,318.016 Q266,316.576 268.52,314.056 Q271.04,311.536 272.48,308.188 Q273.92,304.84 273.92,301.024 Q273.92,297.208 272.48,293.86 Q271.04,290.512 268.52,287.992 Q266,285.472 262.652,284.032 Q259.304,282.592 255.488,282.592 Q251.672,282.592 248.324,284.032 Q244.976,285.472 242.456,287.992 Q239.936,290.512 238.496,293.86 Q237.056,297.208 237.056,301.024 z M245.408,301.024 Q245.408,303.112 246.2,304.948 Q246.992,306.784 248.36,308.152 Q249.728,309.52 251.564,310.312 Q253.4,311.104 255.488,311.104 Q257.576,311.104 259.412,310.312 Q261.248,309.52 262.616,308.152 Q263.984,306.784 264.776,304.948 Q265.568,303.112 265.568,301.024 Q265.568,298.936 264.776,297.1 Q263.984,295.264 262.616,293.896 Q261.248,292.528 259.412,291.736 Q257.576,290.944 255.488,290.944 Q253.4,290.944 251.564,291.736 Q249.728,292.528 248.36,293.896 Q246.992,295.264 246.2,297.1 Q245.408,298.936 245.408,301.024 z M255.488,317.584 Q252.032,317.584 249.044,316.288 Q246.056,314.992 243.788,312.724 Q241.52,310.456 240.224,307.468 Q238.928,304.48 238.928,301.024 Q238.928,297.568 240.224,294.58 Q241.52,291.592 243.788,289.324 Q246.056,287.056 249.044,285.76 Q252.032,284.464 255.488,284.464 Q258.944,284.464 261.932,285.76 Q264.92,287.056 267.188,289.324 Q269.456,291.592 270.752,294.58 Q272.048,297.568 272.048,301.024 Q272.048,304.48 270.752,307.468 Q269.456,310.456 267.188,312.724 Q264.92,314.992 261.932,316.288 Q258.944,317.584 255.488,317.584 z M297.464,276.976 L305.6,297.856 L313.808,276.976 L330.584,276.976 L311.864,325 L299.408,325 L280.688,276.976 z M306.392,319.24 L320.648,282.736 L318.632,282.736 L305.6,315.928 L292.64,282.736 L290.624,282.736 L304.88,319.24 z M331.664,276.976 L347.936,276.976 L347.936,325 L331.664,325 z M340.736,319.24 L340.736,282.736 L338.864,282.736 L338.864,319.24 z M352.976,276.976 L365.576,276.976 L378.824,295.48 L378.824,276.976 L393.872,276.976 L393.872,325 L381.2,325 L368.024,306.568 L368.024,325 L352.976,325 z M361.544,319.24 L361.544,285.976 L385.304,319.24 L387.176,319.24 L387.176,282.736 L385.304,282.736 L385.304,316 L361.544,282.736 L359.672,282.736 L359.672,319.24 z M397.832,301.024 Q397.832,295.84 399.812,291.232 Q401.792,286.624 405.212,283.204 Q408.632,279.784 413.24,277.804 Q417.848,275.824 423.032,275.824 Q428.216,275.824 432.824,277.804 Q437.432,279.784 440.852,283.204 Q444.272,286.624 446.252,291.232 Q448.232,295.84 448.232,301.024 Q448.232,306.208 446.252,310.816 Q444.272,315.424 440.852,318.844 Q437.432,322.264 432.824,324.244 Q428.216,326.224 423.032,326.224 Q417.848,326.224 413.24,324.244 Q408.632,322.264 405.212,318.844 Q401.792,315.424 399.812,310.816 Q397.832,306.208 397.832,301.024 z M404.6,301.024 Q404.6,304.84 406.04,308.188 Q407.48,311.536 410,314.056 Q412.52,316.576 415.868,318.016 Q419.216,319.456 423.032,319.456 Q426.848,319.456 430.196,318.016 Q433.544,316.576 436.064,314.056 Q438.584,311.536 440.024,308.188 Q441.464,304.84 441.464,301.024 Q441.464,297.208 440.024,293.86 Q438.584,290.512 436.064,287.992 Q433.544,285.472 430.196,284.032 Q426.848,282.592 423.032,282.592 Q419.216,282.592 415.868,284.032 Q412.52,285.472 410,287.992 Q407.48,290.512 406.04,293.86 Q404.6,297.208 404.6,301.024 z M412.952,301.024 Q412.952,303.112 413.744,304.948 Q414.536,306.784 415.904,308.152 Q417.272,309.52 419.108,310.312 Q420.944,311.104 423.032,311.104 Q425.12,311.104 426.956,310.312 Q428.792,309.52 430.16,308.152 Q431.528,306.784 432.32,304.948 Q433.112,303.112 433.112,301.024 Q433.112,298.936 432.32,297.1 Q431.528,295.264 430.16,293.896 Q428.792,292.528 426.956,291.736 Q425.12,290.944 423.032,290.944 Q420.944,290.944 419.108,291.736 Q417.272,292.528 415.904,293.896 Q414.536,295.264 413.744,297.1 Q412.952,298.936 412.952,301.024 z M423.032,317.584 Q419.576,317.584 416.588,316.288 Q413.6,314.992 411.332,312.724 Q409.064,310.456 407.768,307.468 Q406.472,304.48 406.472,301.024 Q406.472,297.568 407.768,294.58 Q409.064,291.592 411.332,289.324 Q413.6,287.056 416.588,285.76 Q419.576,284.464 423.032,284.464 Q426.488,284.464 429.476,285.76 Q432.464,287.056 434.732,289.324 Q437,291.592 438.296,294.58 Q439.592,297.568 439.592,301.024 Q439.592,304.48 438.296,307.468 Q437,310.456 434.732,312.724 Q432.464,314.992 429.476,316.288 Q426.488,317.584 423.032,317.584 z" fill-opacity="0" stroke="#FFFFFF" stroke-width="1"/>
    </g>
  </g>
</svg>
