<?xml version="1.0" encoding="UTF-8"?>
<!DOCTYPE svg PUBLIC "-//W3C//DTD SVG 1.1//EN" "http://www.w3.org/Graphics/SVG/1.1/DTD/svg11.dtd">
<svg version="1.1" xmlns="http://www.w3.org/2000/svg" xmlns:xlink="http://www.w3.org/1999/xlink" x="0" y="0" width="500" height="500" viewBox="0, 0, 500, 500">
  <g id="Layer_1">
    <path d="M256.944,199.94 C244.543,189.216 243.75,179.373 253.813,167.126 C255.246,165.38 256.72,163.659 258.023,161.819 C267.29,148.721 264.125,135.473 250.043,128.254 C248.88,127.658 247.714,127.064 246.258,126.319 C246.395,127.062 246.375,127.509 246.555,127.85 C251.335,136.877 250.257,145.221 243.721,152.982 C242.658,154.244 241.702,155.614 240.837,157.021 C229.108,176.083 240.776,196.552 256.944,199.94" fill="#744918"/>
    <path d="M232.48,183.79 C225.342,176.11 225.138,169.316 231.509,161.128 C232.416,159.961 233.347,158.811 234.179,157.576 C240.096,148.784 238.564,139.588 230.322,134.281 C229.642,133.842 228.959,133.406 228.106,132.858 C228.168,133.372 228.145,133.679 228.242,133.918 C230.858,140.248 229.981,145.964 225.85,151.149 C225.178,151.992 224.566,152.913 224.01,153.859 C216.452,166.698 222.881,181.069 232.48,183.79" fill="#744918"/>
    <path d="M262.951,190.68 C260.886,187.188 259.993,183.61 262.032,179.885 C262.96,178.19 264.217,176.667 265.385,175.112 C267.862,171.813 268.408,168.345 266.804,164.884 C264.338,168.269 261.931,171.691 259.4,175.02 C254.551,181.405 255.604,186.559 262.951,190.68" fill="#744918"/>
    <path d="M96.111,246.28 C98.027,163.928 165.068,100.005 246.863,100.782 C328.545,101.559 396.937,170.843 393.546,256.51 C393.496,257.753 393.416,258.992 393.332,260.229 L386.989,260.229 C387.263,256.715 387.421,253.172 387.43,249.596 C387.619,171.516 323.665,107.408 245.621,107.161 C166.731,106.911 102.618,170.582 102.53,249.266 C102.525,252.957 102.681,256.609 102.954,260.229 L96.454,260.229 C96.127,255.627 96.002,250.977 96.111,246.28 z M312.26,258.928 C318.599,250.048 323.411,239.83 326.296,229.082 C332.331,227.68 337.084,228.447 338.818,231.147 C340.242,233.362 339.655,236.923 337.209,240.918 C334.508,245.331 329.938,249.74 324.341,253.336 C320.362,255.893 316.194,257.813 312.26,258.928 z M107.592,249.063 C107.821,173.675 169.47,112.24 244.921,112.21 C320.68,112.18 382.746,174.375 382.341,250.207 C382.323,253.576 382.167,256.917 381.903,260.229 L330.566,260.229 C346.003,249.779 353.462,234.751 347.544,225.54 C344.243,220.403 337.18,218.143 328.385,219.313 C328.739,217.105 329.016,214.909 329.21,212.757 C329.454,210.061 328.569,207.461 326.721,205.438 C324.846,203.386 322.177,202.209 319.398,202.209 L176.664,202.209 C173.886,202.209 171.217,203.386 169.342,205.438 C167.492,207.461 166.608,210.061 166.852,212.757 C168.482,230.806 174.891,247.092 184.608,260.229 L108.033,260.229 C107.743,256.543 107.58,252.823 107.592,249.063 z M410.481,260.229 C411.189,259.601 411.92,258.955 412.698,258.269 C421.192,250.778 421.047,247.12 411.97,239.993 C393.833,225.753 393.833,225.753 406.791,206.536 C412.799,197.625 411.293,191.773 401.168,188.746 C381.78,182.949 376.683,185.12 385.75,157.792 C385.932,157.243 386.248,156.737 386.402,156.184 C388.457,148.834 386.235,145.178 378.462,144.219 C373.602,143.619 368.629,143.994 363.717,143.736 C353.513,143.203 351.119,140.662 350.929,130.438 C350.886,128.123 350.92,125.806 350.908,123.488 C350.835,108.07 348.536,106.231 333.594,109.634 C313.207,114.276 313.207,114.277 305.698,94.597 C300.877,81.96 298.513,81.178 287.174,88.468 C268.806,100.278 268.806,100.278 254.839,83.223 C246.651,73.226 243.006,73.171 235.023,83.503 C220.796,101.919 221.489,101.187 203.123,88.61 C191.446,80.615 188.308,82.133 183.845,95.708 C178.719,111.305 176.754,118.25 158.623,110.041 C157.352,109.465 155.766,109.622 154.359,109.297 C142.214,106.5 139.359,108.252 139.422,120.384 C139.546,144.263 136.77,144.017 115.34,143.947 C103.915,143.91 101.284,147.817 104.392,158.52 C110.843,180.738 110.843,180.738 88.944,188.602 C78.821,192.236 76.866,197.492 83.016,206.173 C97.189,226.183 97.469,225.826 77.545,240.275 C68.953,246.506 68.948,251.413 77.022,258.074 C77.939,258.831 78.901,259.535 79.871,260.229 L38.356,260.229 L38.356,266.605 L461,266.605 L461,260.229 L410.481,260.229" fill="#744918"/>
    <path d="M244.209,397.773 C194.203,397.733 150.538,373.121 123.809,335.847 L131.937,335.847 C157.986,369.679 198.954,391.493 245.056,391.474 C290.703,391.911 331.718,369.897 357.871,335.847 L365.445,335.847 C337.977,373.521 293.286,398.569 244.209,397.773 z M351.352,335.847 C325.879,367.065 287.147,386.996 244.468,386.345 C201.743,386.281 163.561,366.58 138.445,335.847 L351.352,335.847 z M38.356,335.847 L105.454,335.847 C100.687,354.081 102.121,354.256 123.959,354.855 C136.119,355.189 138.677,357.658 139.256,369.628 C140.407,393.422 140.407,393.422 163.04,386.805 C173.352,383.79 177.131,385.504 181.088,395.403 C182.583,399.141 183.401,403.146 184.814,406.922 C187.807,414.928 192.067,416.626 199.545,412.416 C204.022,409.896 207.973,406.46 212.355,403.75 C217.843,400.356 223.048,399.691 227.423,405.901 C230.56,410.354 233.978,414.636 237.556,418.745 C242.486,424.408 247.03,424.416 251.989,418.781 C255.218,415.115 257.973,411.036 261.099,407.274 C267.121,400.026 271.105,399.506 278.755,404.678 C282.799,407.411 286.823,410.182 290.973,412.748 C297.455,416.754 301.789,414.743 304.271,407.763 C305.819,403.407 307.943,399.213 309.069,394.76 C311.044,386.948 315.997,384.462 323.293,386.15 C327.766,387.185 332.023,389.116 336.439,390.435 C345.561,393.16 350.378,389.779 350.829,380.297 C351.049,375.673 351.012,371.03 350.929,366.398 C350.803,359.319 354.6,355.796 361.238,355.038 C364.097,354.712 367.023,354.983 371.915,354.983 C386.318,356.035 390.64,351.47 384.165,335.847 L461,335.847 L461,329.472 L38.356,329.472 L38.356,335.847" fill="#744918"/>
    <g>
      <text transform="matrix(1, 0, 0, 1, 254, 296.5)">
        <tspan x="-101.688" y="12.5" font-family="Phosphate-Inline" font-size="38" fill="#4F5913">BeanoVino</tspan>
      </text>
      <path d="M153.642,283.654 L163.56,283.654 Q165.46,283.654 167.037,284.091 Q168.614,284.528 169.735,285.383 Q170.856,286.238 171.483,287.511 Q172.11,288.784 172.11,290.494 Q172.11,291.71 171.806,292.565 Q171.502,293.42 171.16,293.99 Q170.742,294.674 170.21,295.13 Q171.046,295.662 171.73,296.498 Q172.3,297.22 172.775,298.322 Q173.25,299.424 173.25,301.02 Q173.25,302.844 172.604,304.326 Q171.958,305.808 170.761,306.853 Q169.564,307.898 167.835,308.449 Q166.106,309 163.978,309 L153.642,309 z M162.382,303.034 Q165.27,303.034 165.27,300.83 Q165.27,298.626 162.382,298.626 L161.47,298.626 L161.47,303.034 z M164.282,291.368 Q164.282,289.62 162.382,289.62 L161.47,289.62 L161.47,293.116 L162.382,293.116 Q164.282,293.116 164.282,291.368 z M162.914,305.96 Q166.258,305.96 167.854,304.516 Q169.45,303.072 169.45,300.678 Q169.45,299.12 168.785,298.189 Q168.12,297.258 167.36,296.726 Q166.41,296.118 165.27,295.89 Q166.182,295.624 166.904,295.054 Q167.55,294.56 168.063,293.705 Q168.576,292.85 168.576,291.52 Q168.576,289.126 167.056,287.91 Q165.536,286.694 162.914,286.694 L157.442,286.694 L157.442,305.96 z M158.43,305.048 L158.43,296.346 L162.876,296.346 Q164.054,296.346 165.061,296.593 Q166.068,296.84 166.828,297.353 Q167.588,297.866 168.025,298.702 Q168.462,299.538 168.462,300.678 Q168.462,302.996 166.923,304.022 Q165.384,305.048 162.876,305.048 z M158.43,295.434 L158.43,287.606 L162.914,287.606 Q165.384,287.606 166.467,288.689 Q167.55,289.772 167.55,291.52 Q167.55,293.268 166.467,294.351 Q165.384,295.434 162.914,295.434 z M174.96,283.654 L189.894,283.654 L189.894,290.304 L183.054,290.304 L183.054,293.116 L189.78,293.116 L189.78,299.424 L183.054,299.424 L183.054,302.35 L190.16,302.35 L190.16,309 L174.96,309 z M187.348,305.96 L187.348,305.048 L179.748,305.048 L179.748,296.726 L186.968,296.726 L186.968,295.814 L179.748,295.814 L179.748,287.606 L187.348,287.606 L187.348,286.694 L178.76,286.694 L178.76,305.96 z M199.964,283.654 L206.044,283.654 L215.658,309 L207.678,309 L206.842,306.72 L199.166,306.72 L198.33,309 L190.35,309 z M204.714,301.134 L203.004,296.688 L201.294,301.134 z M196.012,305.96 L196.734,304.06 L209.274,304.06 L209.996,305.96 L211.06,305.96 L203.726,286.694 L202.282,286.694 L194.948,305.96 z M203.004,287.606 L208.932,303.148 L197.076,303.148 z M216.228,283.654 L222.878,283.654 L229.87,293.42 L229.87,283.654 L237.812,283.654 L237.812,309 L231.124,309 L224.17,299.272 L224.17,309 L216.228,309 z M220.75,305.96 L220.75,288.404 L233.29,305.96 L234.278,305.96 L234.278,286.694 L233.29,286.694 L233.29,304.25 L220.75,286.694 L219.762,286.694 L219.762,305.96 z M239.902,296.346 Q239.902,293.61 240.947,291.178 Q241.992,288.746 243.797,286.941 Q245.602,285.136 248.034,284.091 Q250.466,283.046 253.202,283.046 Q255.938,283.046 258.37,284.091 Q260.802,285.136 262.607,286.941 Q264.412,288.746 265.457,291.178 Q266.502,293.61 266.502,296.346 Q266.502,299.082 265.457,301.514 Q264.412,303.946 262.607,305.751 Q260.802,307.556 258.37,308.601 Q255.938,309.646 253.202,309.646 Q250.466,309.646 248.034,308.601 Q245.602,307.556 243.797,305.751 Q241.992,303.946 240.947,301.514 Q239.902,299.082 239.902,296.346 z M243.474,296.346 Q243.474,298.36 244.234,300.127 Q244.994,301.894 246.324,303.224 Q247.654,304.554 249.421,305.314 Q251.188,306.074 253.202,306.074 Q255.216,306.074 256.983,305.314 Q258.75,304.554 260.08,303.224 Q261.41,301.894 262.17,300.127 Q262.93,298.36 262.93,296.346 Q262.93,294.332 262.17,292.565 Q261.41,290.798 260.08,289.468 Q258.75,288.138 256.983,287.378 Q255.216,286.618 253.202,286.618 Q251.188,286.618 249.421,287.378 Q247.654,288.138 246.324,289.468 Q244.994,290.798 244.234,292.565 Q243.474,294.332 243.474,296.346 z M247.882,296.346 Q247.882,297.448 248.3,298.417 Q248.718,299.386 249.44,300.108 Q250.162,300.83 251.131,301.248 Q252.1,301.666 253.202,301.666 Q254.304,301.666 255.273,301.248 Q256.242,300.83 256.964,300.108 Q257.686,299.386 258.104,298.417 Q258.522,297.448 258.522,296.346 Q258.522,295.244 258.104,294.275 Q257.686,293.306 256.964,292.584 Q256.242,291.862 255.273,291.444 Q254.304,291.026 253.202,291.026 Q252.1,291.026 251.131,291.444 Q250.162,291.862 249.44,292.584 Q248.718,293.306 248.3,294.275 Q247.882,295.244 247.882,296.346 z M253.202,305.086 Q251.378,305.086 249.801,304.402 Q248.224,303.718 247.027,302.521 Q245.83,301.324 245.146,299.747 Q244.462,298.17 244.462,296.346 Q244.462,294.522 245.146,292.945 Q245.83,291.368 247.027,290.171 Q248.224,288.974 249.801,288.29 Q251.378,287.606 253.202,287.606 Q255.026,287.606 256.603,288.29 Q258.18,288.974 259.377,290.171 Q260.574,291.368 261.258,292.945 Q261.942,294.522 261.942,296.346 Q261.942,298.17 261.258,299.747 Q260.574,301.324 259.377,302.521 Q258.18,303.718 256.603,304.402 Q255.026,305.086 253.202,305.086 z M275.356,283.654 L279.65,294.674 L283.982,283.654 L292.836,283.654 L282.956,309 L276.382,309 L266.502,283.654 z M280.068,305.96 L287.592,286.694 L286.528,286.694 L279.65,304.212 L272.81,286.694 L271.746,286.694 L279.27,305.96 z M293.406,283.654 L301.994,283.654 L301.994,309 L293.406,309 z M298.194,305.96 L298.194,286.694 L297.206,286.694 L297.206,305.96 z M304.654,283.654 L311.304,283.654 L318.296,293.42 L318.296,283.654 L326.238,283.654 L326.238,309 L319.55,309 L312.596,299.272 L312.596,309 L304.654,309 z M309.176,305.96 L309.176,288.404 L321.716,305.96 L322.704,305.96 L322.704,286.694 L321.716,286.694 L321.716,304.25 L309.176,286.694 L308.188,286.694 L308.188,305.96 z M328.328,296.346 Q328.328,293.61 329.373,291.178 Q330.418,288.746 332.223,286.941 Q334.028,285.136 336.46,284.091 Q338.892,283.046 341.628,283.046 Q344.364,283.046 346.796,284.091 Q349.228,285.136 351.033,286.941 Q352.838,288.746 353.883,291.178 Q354.928,293.61 354.928,296.346 Q354.928,299.082 353.883,301.514 Q352.838,303.946 351.033,305.751 Q349.228,307.556 346.796,308.601 Q344.364,309.646 341.628,309.646 Q338.892,309.646 336.46,308.601 Q334.028,307.556 332.223,305.751 Q330.418,303.946 329.373,301.514 Q328.328,299.082 328.328,296.346 z M331.9,296.346 Q331.9,298.36 332.66,300.127 Q333.42,301.894 334.75,303.224 Q336.08,304.554 337.847,305.314 Q339.614,306.074 341.628,306.074 Q343.642,306.074 345.409,305.314 Q347.176,304.554 348.506,303.224 Q349.836,301.894 350.596,300.127 Q351.356,298.36 351.356,296.346 Q351.356,294.332 350.596,292.565 Q349.836,290.798 348.506,289.468 Q347.176,288.138 345.409,287.378 Q343.642,286.618 341.628,286.618 Q339.614,286.618 337.847,287.378 Q336.08,288.138 334.75,289.468 Q333.42,290.798 332.66,292.565 Q331.9,294.332 331.9,296.346 z M336.308,296.346 Q336.308,297.448 336.726,298.417 Q337.144,299.386 337.866,300.108 Q338.588,300.83 339.557,301.248 Q340.526,301.666 341.628,301.666 Q342.73,301.666 343.699,301.248 Q344.668,300.83 345.39,300.108 Q346.112,299.386 346.53,298.417 Q346.948,297.448 346.948,296.346 Q346.948,295.244 346.53,294.275 Q346.112,293.306 345.39,292.584 Q344.668,291.862 343.699,291.444 Q342.73,291.026 341.628,291.026 Q340.526,291.026 339.557,291.444 Q338.588,291.862 337.866,292.584 Q337.144,293.306 336.726,294.275 Q336.308,295.244 336.308,296.346 z M341.628,305.086 Q339.804,305.086 338.227,304.402 Q336.65,303.718 335.453,302.521 Q334.256,301.324 333.572,299.747 Q332.888,298.17 332.888,296.346 Q332.888,294.522 333.572,292.945 Q334.256,291.368 335.453,290.171 Q336.65,288.974 338.227,288.29 Q339.804,287.606 341.628,287.606 Q343.452,287.606 345.029,288.29 Q346.606,288.974 347.803,290.171 Q349,291.368 349.684,292.945 Q350.368,294.522 350.368,296.346 Q350.368,298.17 349.684,299.747 Q349,301.324 347.803,302.521 Q346.606,303.718 345.029,304.402 Q343.452,305.086 341.628,305.086 z" fill-opacity="0" stroke="#FFFFFF" stroke-width="1"/>
    </g>
  </g>
</svg>
